<svg width="256" height="256" viewBox="0 0 256 256" fill="none" xmlns="http://www.w3.org/2000/svg">
<path d="M66.9234 150.508C66.2898 150.338 65.5826 149.809 65.3507 149.407C64.2759 147.082 70.53 120.573 81.2151 81.3295C88.6318 54.2835 91.2521 45.1381 92.098 44.5158C92.6581 44.3263 93.2182 44.1368 93.4926 44.3801C93.6086 44.581 93.9678 44.5075 94.0103 44.3491C94.2536 44.0747 94.8448 44.4029 95.4246 45.4072C96.3213 46.4964 96.7541 46.7821 97.1558 46.5502C97.7584 46.2023 98.0752 46.2872 98.2647 46.8473C98.4966 47.249 98.9718 47.3764 99.2887 47.4612C99.6479 47.3877 99.9223 47.631 100.038 47.8319C100.27 48.2336 100.788 48.2025 101.792 47.6227C103.156 46.9694 103.156 46.9694 104.253 47.9426C104.918 48.6301 105.54 49.4759 105.614 49.8352C105.645 50.3529 101.516 66.3949 98.6609 77.6846L93.3437 98.1622L96.3535 98.9687C98.0961 99.4356 102.331 100.74 105.932 101.875C111.117 103.434 112.384 103.773 112.67 103.341C113.241 102.475 115.214 96.3819 119.837 81.661C123.878 68.4817 128.173 54.352 129.019 53.7297C129.263 53.4553 129.579 53.5402 129.97 53.9844C130.561 54.3126 130.878 54.3975 131.523 53.8912C132.168 53.3848 132.125 53.5433 131.902 55.0114L131.477 56.5955L132.304 54.7795C133.13 52.9634 133.288 53.0059 136.287 54.4885C136.878 54.8167 137.237 54.7431 137.364 54.2679C137.661 53.159 138.855 53.1393 139.234 54.2596C139.54 55.0206 139.656 55.2214 140.459 54.7576C141.378 54.4946 141.537 54.537 141.568 55.0547C141.483 55.3715 141.789 56.1325 142.136 56.7351C142.759 57.5809 142.705 58.4154 140.837 65.3856C139.691 69.6627 135.002 85.8942 132.648 93.4131C130.093 101.048 128.237 107.342 128.31 107.701C128.426 107.902 130.918 108.74 133.928 109.546L139.314 110.989L153.553 59.1151L154.705 59.2538C155.338 59.4236 156.173 59.4774 156.331 59.5199C156.648 59.6048 156.965 59.6897 157.123 59.7321C157.44 59.817 158.823 60.3574 160.566 60.8243C162.266 61.4496 163.808 62.0325 163.966 62.075C164.241 62.3183 165.118 62.2137 165.836 62.0667C168.15 61.668 168.456 62.429 167.796 66.1573C167.445 68.1007 163.147 84.7764 160.419 95.5909L155.155 115.234L169.729 119.139C177.808 121.304 185.211 123.457 186.119 123.87C187.503 124.411 187.618 124.612 187.468 126.439C187.264 129.101 181.97 148.226 176.444 166.95C173.92 175.102 170.334 187.215 168.351 193.985C163.577 210.533 162.284 214.091 161.407 214.196C161.048 214.27 160.457 213.941 160.066 213.497C159.676 213.053 159.201 212.926 158.081 213.305C156.443 213.715 156.443 213.715 156.307 212.32C156.318 211.644 156.214 210.767 156.341 210.292C156.681 209.025 155.275 209.836 154.734 211.22L153.993 212.719L150.941 212.071C149.198 211.604 147.815 211.063 147.699 210.862C147.362 209.584 148.562 204.472 154.216 185.273C157.631 173.794 162.235 157.879 164.558 149.843L168.823 135.195L159.793 132.776C151.714 130.611 150.922 130.399 150.594 130.99C150.467 131.465 147.846 140.611 144.802 151.34C141.587 162.704 139.021 171.015 138.661 171.088C138.26 171.32 137.668 170.992 136.961 170.463C136.022 169.532 135.705 169.447 134.902 169.911C134.5 170.143 133.349 170.004 132.081 169.665C130.973 169.368 129.906 168.912 129.357 168.425C129.241 168.225 128.407 168.171 127.488 168.434C125.892 168.685 124.667 168.187 124.288 167.067C124.215 166.708 126.561 157.319 129.532 146.23L134.807 125.911L129.421 124.468C126.411 123.661 123.791 123.299 123.59 123.415C123.39 123.531 121.448 130.142 119.326 138.062C114.244 156.396 112.696 160.905 111.862 160.851C111.344 160.882 110.88 160.079 110.575 159.318C110.122 157.838 110.122 157.838 109.508 158.862C108.767 160.361 108.102 159.674 108.569 157.931C108.994 156.347 109.036 156.189 108.001 156.251C107.325 156.24 106.49 156.186 106.015 156.058C105.54 155.931 105.138 156.163 104.968 156.797C104.841 157.272 104.597 157.546 104.281 157.461C104.122 157.419 104.006 157.218 104.134 156.743C104.218 156.426 104.071 155.708 103.724 155.105C103.302 154.143 103.302 154.143 102.445 155.441C101.63 156.581 101.429 156.697 100.923 156.052C100.575 155.45 100.374 155.566 100.035 156.833L99.6101 158.417L98.1025 155.806L107.95 119.054L89.0256 113.644L85.6071 127.669C83.8865 135.358 81.6255 144.43 80.7341 147.756L79.0787 153.935L75.868 153.244C74.1255 152.777 72.4565 152.669 72.0972 152.743C71.5371 152.932 71.2203 152.848 70.8724 152.245C70.7253 151.526 70.4085 151.442 69.8059 151.789C69.2458 151.979 68.929 151.894 68.5386 151.45C68.3067 151.048 67.5571 150.678 66.9234 150.508ZM136.136 56.3159C136.264 55.8406 136.063 55.9566 135.851 56.7487C135.638 57.5407 135.712 57.9 135.797 57.5832C136.04 57.3088 136.21 56.6751 136.136 56.3159Z" fill="white"/>
<path d="M200.297 74.0798C201.268 74.7094 202.146 75.6838 202.412 75.755C202.585 76.1709 201.569 79.9629 198.521 91.339C194.087 107.886 192.251 113.675 190.922 113.319C190.657 113.248 190.31 112.416 189.963 111.584C189.627 109.647 189.361 109.575 187.744 111.359C185.595 113 183.376 112.775 183.041 110.838C182.601 110.351 181.631 109.721 180.209 109.71C178.43 109.972 177.991 109.484 177.747 107.202C177.689 104.231 174.326 102.96 173.853 105.789C173.668 106.479 173.125 107.442 172.859 107.371C172.594 107.299 172.431 105.778 172.708 104.744C173.54 101.641 172.754 100.322 171.483 102.938C169.854 105.827 169.345 103.473 169.945 96.9833C171.191 88.0802 176.711 69.6072 178.86 67.9662C179.218 67.6927 180.189 68.3223 180.894 68.8807C181.414 70.1285 182.211 70.3422 183.817 69.6641C186.579 68.9262 191.803 70.6953 191.965 72.2167C191.78 72.9061 192.393 73.8093 193.005 74.7124C193.884 75.6867 194.681 75.9004 196.206 74.4616C197.905 73.4388 198.794 73.3077 200.297 74.0798Z" fill="#EF4444"/>
</svg>
