<svg width="256" height="256" viewBox="0 0 256 256" fill="none" xmlns="http://www.w3.org/2000/svg">
<path d="M180.381 181.072C155.369 181.072 142.789 162.424 142.789 143.036C142.789 121.724 157.737 103.816 179.641 103.816C202.729 103.816 214.569 122.168 214.569 142L213.385 143.184H154.777C154.777 158.28 166.469 171.156 182.305 171.156C196.217 171.156 204.653 163.608 210.129 153.692L211.609 153.1L213.237 153.692L213.977 155.172C209.685 169.972 196.809 181.072 180.381 181.072ZM154.777 134.896L155.961 136.08H197.105C200.361 136.08 201.249 134.6 201.249 131.936C201.249 121.724 193.849 110.624 179.493 110.624C163.805 110.624 155.517 123.944 154.777 134.896Z" fill="white"/>
<path d="M80.696 179H42.808L41.624 177.816V173.08L42.808 171.896H47.544C50.504 171.896 53.464 168.936 53.464 165.976V88.424C53.464 85.464 50.504 82.504 47.544 82.504H42.808L41.624 81.32V76.584L42.808 75.4H80.696C108.52 75.4 131.904 94.344 131.904 127.2C131.904 160.056 108.52 179 80.696 179ZM72.704 171.896H80.104C99.64 171.896 117.992 158.28 117.992 127.2C117.992 96.12 99.64 82.504 80.104 82.504H72.704C69.744 82.504 66.784 85.464 66.784 88.424V165.976C66.784 168.936 69.744 171.896 72.704 171.896Z" fill="white"/>
<path d="M115.787 69.0798C116.758 69.7094 117.636 70.6838 117.902 70.755C118.076 71.1709 117.06 74.9629 114.011 86.339C109.578 102.886 107.742 108.675 106.413 108.319C106.147 108.248 105.8 107.416 105.453 106.584C105.118 104.647 104.852 104.575 103.234 106.359C101.085 108 98.8665 107.775 98.531 105.838C98.0918 105.351 97.1209 104.721 95.6996 104.71C93.92 104.972 93.4808 104.484 93.2376 102.202C93.1792 99.231 89.8162 97.9604 89.343 100.789C89.1583 101.479 88.6154 102.442 88.3496 102.371C88.0838 102.299 87.9217 100.778 88.1988 99.7439C89.0301 96.6413 88.244 95.3222 86.9734 97.9376C85.3447 100.827 84.8357 98.4733 85.4352 91.9833C86.6813 83.0802 92.2008 64.6072 94.3498 62.9662C94.708 62.6927 95.6788 63.3223 96.3839 63.8807C96.9041 65.1285 97.7015 65.3422 99.3076 64.6641C102.069 63.9262 107.293 65.6953 107.455 67.2167C107.27 67.9061 107.883 68.8093 108.496 69.7124C109.374 70.6867 110.171 70.9004 111.697 69.4616C113.395 68.4388 114.285 68.3077 115.787 69.0798Z" fill="#EF4444"/>
</svg>
