<svg width="256" height="256" viewBox="0 0 256 256" fill="none" xmlns="http://www.w3.org/2000/svg">
<path d="M137.799 184.137C130.11 182.416 123.024 180.347 121.799 179.85L119.825 178.981L120.376 176.922C120.801 175.337 121.172 174.588 121.689 174.557C122.207 174.526 122.45 174.251 122.334 174.05C122.261 173.691 122.546 173.258 122.991 172.868C123.435 172.478 123.477 172.319 123.16 172.234C122.844 172.149 122.813 171.632 122.982 170.998C123.11 170.523 123.121 169.847 122.847 169.604C122.456 169.159 123.464 166.034 124.394 165.094C124.881 164.546 125.8 164.283 126.592 164.495L128.061 164.719L133.482 145.118C136.527 134.388 140.93 118.59 143.624 109.803C146.275 101.176 148.556 93.2976 148.61 92.4631C148.76 90.6356 148.76 90.6356 146.701 90.0838L144.483 89.4896L146.679 81.9282C147.782 77.8095 148.959 74.0501 149.203 73.7757C149.489 73.3429 151.432 73.6939 160.693 76.515C182.11 82.763 196.831 87.3866 197.812 88.1589C198.404 88.4871 199.026 89.333 199.057 89.8507C199.467 91.4886 195.064 107.287 192.022 115.471C190.687 119.188 188.842 124.806 187.835 127.932L186.19 133.434L188.482 134.387C190.182 135.012 191.047 135.584 191.701 136.948C193.599 140.003 193.692 141.556 191.686 149.677C189.764 157.482 183.443 178.539 180.061 187.99C177.931 194.041 176.83 195.614 174.844 195.421C173.175 195.314 166.248 193.288 161.105 191.57C158.93 190.817 155.846 189.652 154.347 188.91C152.373 188.042 147.187 186.483 137.799 184.137ZM160.345 111.398C156.197 126.246 155.985 127.038 156.661 127.049C158.372 126.998 165.86 128.835 167.919 129.387L169.503 129.811L171.688 122.926C174.551 113.506 178.527 101.838 179.183 100.655C179.554 99.9056 179.438 99.7047 172.51 97.6787C168.751 96.5015 165.424 95.6102 165.223 95.7261C165.023 95.8421 162.796 102.886 160.345 111.398ZM152.088 143.482L151.137 143.227L144.346 168.573L155.392 171.702L166.64 174.716L167.381 173.217C167.794 172.309 169.565 166.332 171.464 159.879L174.964 148.083L170.286 147.169C167.593 146.448 162.755 145.491 159.344 144.916C155.975 144.184 152.563 143.609 152.088 143.482Z" fill="white"/>
<path d="M63.0833 114.2C62.9249 114.157 62.9477 112.805 63.3721 111.221C64.1051 107.852 62.8689 108.03 74.9734 109.745L83.1911 110.759L87.2235 95.7097C89.4307 87.4723 91.9464 77.4499 92.8491 73.4472C94.4113 65.7161 95.1215 63.6992 96.2304 63.9963C96.7057 64.1236 96.9914 63.6908 97.2461 62.7404C97.5857 61.4731 97.829 61.1987 98.737 61.6118C99.3706 61.7816 99.7185 62.3842 99.7382 63.5779C99.7776 65.9655 100.168 66.4096 100.635 64.6671C101.229 62.4493 102.075 61.8271 102.612 62.9898C102.96 63.5923 103.107 64.3109 103.065 64.4693C102.98 64.7861 103.339 64.7126 103.826 64.1639C105 62.9504 106.839 62.4244 108.465 62.6904C109.257 62.9026 110.134 62.7981 110.378 62.5237C111.308 61.5846 111.684 65.2508 110.855 69.6128C110.578 71.9155 107.85 82.7299 104.921 93.6603C101.992 104.591 99.7311 113.663 99.8895 113.705C100.005 113.906 103.332 114.797 107.176 115.658L114.031 117.324L115.273 112.054C116.878 104.165 125.718 70.5391 126.278 70.3496C126.521 70.0753 126.796 70.3186 126.869 70.6778C127.101 71.0796 127.503 70.8476 128.476 69.7501C129.978 67.9454 130.728 68.3161 130.767 70.7036C130.676 76.1124 130.676 76.1124 131.514 73.6202C132.363 70.452 133.347 68.6784 133.981 68.8482C134.615 69.018 134.708 70.571 134.439 74.7435L134.362 76.9302L135.655 73.3717C136.323 71.5132 136.779 70.4467 137.254 70.5741C137.571 70.6589 137.59 71.8527 137.672 74.0819C137.839 75.9942 137.87 76.5119 138.125 75.5614C138.294 74.9278 138.781 74.379 138.939 74.4214C139.256 74.5063 139.743 73.9576 140.156 73.0496L140.94 71.3919L140.875 72.9025C140.891 76.6423 138.862 86.1159 131.241 115.824C126.847 133.492 121.391 155.121 119.257 163.718C115.85 177.067 115.055 179.401 114.452 179.749C113.892 179.938 113.575 179.853 113.502 179.494C113.428 179.135 113.556 178.659 113.757 178.544C114.518 178.238 114.922 175.46 114.289 175.29C114.13 175.248 113.717 176.156 113.463 177.106C113.038 178.691 112.837 178.807 111.887 178.552C110.936 178.297 110.704 177.895 111.013 176.11C111.29 173.808 110.193 172.835 109.641 174.894C108.834 177.904 108.433 178.136 105.782 177.256L103.248 176.577L103.208 174.189C103.242 172.161 103.01 171.759 102.524 172.308C102.238 172.741 101.825 173.649 101.613 174.441C101.474 175.592 101.188 176.025 100.713 175.897C99.7626 175.643 100.453 172.432 105.55 150.877C107.652 141.762 109.373 134.074 109.257 133.873C109.067 133.313 103.365 131.785 98.4849 130.986L94.915 130.369L91.8785 142.969C88.0781 158.42 86.6152 162.612 85.4214 162.632C84.9037 162.663 84.3012 163.011 84.0154 163.443C83.7297 163.876 83.1695 164.066 82.6943 163.938C82.2191 163.811 81.6589 164 81.574 164.317C81.045 165.024 80.3492 163.819 80.6463 162.71C80.8161 162.077 80.6266 161.517 80.3098 161.432C79.8345 161.304 79.6026 160.903 79.73 160.427C79.9422 159.635 79.9422 159.635 79.2547 160.3C78.7681 160.849 78.2504 160.88 77.5008 160.509C76.9096 160.181 76.4344 160.054 76.3495 160.371C76.1797 161.004 74.9124 160.665 75.1246 159.873C75.2095 159.556 74.7654 159.946 74.1939 160.812C73.3791 161.952 73.1358 162.226 71.8685 161.886C70.6012 161.547 70.6012 161.547 71.1333 158.294C71.4418 156.509 73.2359 149.179 75.146 142.051C77.0985 134.764 78.3946 128.659 78.3211 128.3C78.1316 127.74 77.6564 127.613 75.6706 127.42C74.3184 127.397 70.6325 126.58 67.1898 125.487C62.2791 124.171 61.0542 123.673 60.5904 122.87C60.169 121.908 60.169 121.908 61.4052 121.73C62.1237 121.583 63.1166 121.679 63.4335 121.764C63.7503 121.849 64.1096 121.776 64.036 121.416C63.9201 121.215 63.4873 120.93 62.9696 120.961C61.459 120.896 61.1649 119.459 62.3617 116.893C63.103 115.394 63.3577 114.443 63.0833 114.2Z" fill="white"/>
<path d="M174.787 143.08C175.758 143.709 176.636 144.684 176.902 144.755C177.076 145.171 176.06 148.963 173.011 160.339C168.578 176.886 166.742 182.675 165.413 182.319C165.147 182.248 164.8 181.416 164.453 180.584C164.118 178.647 163.852 178.575 162.234 180.359C160.085 182 157.867 181.775 157.531 179.838C157.092 179.351 156.121 178.721 154.7 178.71C152.92 178.972 152.481 178.484 152.238 176.202C152.179 173.231 148.816 171.96 148.343 174.789C148.158 175.479 147.615 176.442 147.35 176.371C147.084 176.299 146.922 174.778 147.199 173.744C148.03 170.641 147.244 169.322 145.973 171.938C144.345 174.827 143.836 172.473 144.435 165.983C145.681 157.08 151.201 138.607 153.35 136.966C153.708 136.693 154.679 137.322 155.384 137.881C155.904 139.129 156.702 139.342 158.308 138.664C161.069 137.926 166.293 139.695 166.455 141.217C166.27 141.906 166.883 142.809 167.496 143.712C168.374 144.687 169.171 144.9 170.697 143.462C172.395 142.439 173.285 142.308 174.787 143.08Z" fill="#EF4444"/>
</svg>
