<svg width="716" height="241" viewBox="0 0 716 241" fill="none" xmlns="http://www.w3.org/2000/svg">
<path d="M73.256 170.344C72.928 171.164 72.764 171.328 72.764 170.836C72.764 170.344 72.272 169.852 71.944 169.524C71.124 169.196 70.304 164.44 70.304 121.472V76.044L61.284 75.716C56.2 75.552 51.608 75.224 50.952 75.06C49.64 74.732 49.64 74.732 50.296 73.912C50.952 73.256 50.952 72.928 50.624 72.928C50.296 72.928 50.132 72.6 50.296 72.272C50.296 71.944 50.296 71.452 50.132 71.288C49.312 70.468 50.132 68.828 51.116 68.664C52.1 68.664 51.936 68.664 50.952 68.172C49.64 67.844 49.64 67.68 49.64 64.892C49.64 63.088 49.968 61.776 50.46 61.284C50.788 60.792 50.952 60.3 50.788 59.972C50.624 59.644 51.116 59.316 52.1 59.152C54.396 58.824 104.088 59.808 105.728 60.3L107.04 60.792H105.564C103.596 60.792 103.432 61.448 105.072 62.432C106.384 63.416 107.204 65.056 106.22 65.056C105.892 65.056 106.056 65.384 106.548 65.712C107.368 66.368 107.368 66.368 106.712 66.368C105.892 66.368 105.564 67.352 106.548 67.352C106.876 67.352 106.548 67.68 105.892 68.008L104.744 68.664L106.384 68.828C108.024 68.828 107.86 69.484 106.22 69.812C105.4 69.976 105.4 70.14 106.548 70.632C107.532 70.96 107.86 71.288 107.532 71.944C107.368 72.436 107.204 73.092 107.204 73.42C107.204 73.748 107.204 74.568 107.04 75.224C106.876 76.208 106.876 76.208 96.872 76.208H86.868V119.34C86.868 143.12 87.524 165.588 87.36 167.064C87.032 169.196 86.868 169.36 86.212 169.032C84.9 168.376 84.9 168.376 84.572 170.016C84.244 171.656 82.932 171.82 82.932 170.18C82.932 169.524 82.604 169.032 81.948 168.868C81.456 168.704 80.964 168.54 80.964 168.704C80.8 168.704 80.472 169.36 79.98 170.016C78.996 171.656 78.012 171.82 77.684 170.508C77.356 169.196 76.372 169.196 76.372 170.344C76.372 171.492 75.716 171.984 75.06 171.328C74.732 171 74.568 170.344 74.568 169.852C74.568 168.54 73.748 168.868 73.256 170.344ZM139.336 171.328C139.172 171.328 139.172 171.164 139.172 170.836C139.172 170.344 138.516 170.18 137.86 170.18C137.204 170.18 136.384 170.344 135.892 170.836C135.4 171.164 134.744 171.328 134.088 171.328C133.268 171.328 132.448 171.164 132.284 170.672L131.792 170.016L131.464 170.672C131.3 171 130.972 171.328 130.808 171.328L129.66 171.164C129.332 171 128.84 170.672 128.84 170.508C128.84 170.344 128.512 170.016 128.02 169.852H127.528C127.2 169.852 127.036 169.852 127.036 170.016C127.036 170.344 126.708 170.508 126.544 170.508C126.052 170.508 125.56 170.18 125.068 169.524C124.412 168.704 124.248 166.572 124.084 148.532L124.412 103.432L124.74 78.34H118.344C113.588 78.34 112.112 77.848 112.112 76.7L111.784 73.912L112.276 70.468C112.276 70.14 112.112 69.976 111.948 69.812L111.62 69.484C111.62 69.156 111.784 68.992 111.948 68.664C112.112 67.844 112.276 67.188 112.276 66.532C112.276 66.04 112.276 65.712 112.112 65.384C111.948 65.22 111.784 65.056 111.784 64.892C111.784 64.728 111.948 64.728 112.276 64.564C112.768 64.4 113.096 63.908 113.096 63.416C113.096 62.924 113.26 62.432 113.588 62.432L119.328 62.104C124.248 61.612 124.74 61.448 125.396 59.808C125.724 59.808 125.888 59.972 126.216 60.3C126.544 60.792 126.708 61.12 126.872 61.12L127.856 60.464C128.348 59.972 128.676 59.808 129.004 59.808C129.332 59.808 129.66 60.136 130.316 60.792L131.3 61.776C132.284 60.464 132.776 59.808 133.268 59.808C133.432 59.808 133.596 60.136 133.596 60.628C133.596 61.284 133.924 61.612 134.416 61.612C135.072 61.612 135.4 61.284 135.4 60.628C135.4 59.972 135.728 59.808 137.368 59.808C138.844 59.972 139.336 60.136 139.5 60.792C139.664 61.448 141.14 61.448 156.392 61.612C170.66 61.612 173.448 61.612 175.088 62.268C177.22 63.088 179.516 65.22 180.172 67.024C180.336 67.68 180.5 73.584 180.5 80.472C180.5 87.36 180.336 95.068 180.172 99.66C179.844 103.76 179.516 112.616 179.188 119.504C179.024 126.392 178.696 132.46 178.532 132.952C178.04 134.1 177.056 134.264 168.528 134.428L160.164 134.756L159.672 134.92L158.688 134.756H157.376C157.376 134.756 165.904 141.48 170.168 145.58C174.432 150.008 176.4 151.812 176.564 151.812L174.596 149.188C175.744 149.188 181.156 156.076 181.156 158.044V158.7C180.992 158.864 180.828 159.192 180.828 159.684C180.828 160.012 180.992 160.504 181.156 161.16L181.484 162.8C181.484 163.128 181.32 163.292 180.992 163.62C180.664 163.784 180.5 163.948 180.5 164.112C180.5 164.44 180.664 164.604 180.828 164.768C180.992 165.096 181.156 165.752 181.156 166.408C181.156 168.048 180.664 169.852 180.172 169.852C179.68 169.852 178.86 170.18 178.368 170.508C177.548 171 176.564 171.164 174.76 171.164L170.004 171C165.74 170.836 167.216 171.82 157.868 161.652C155.244 158.864 153.112 156.732 152.784 156.732C152.62 156.732 152.62 156.568 152.62 156.24C152.62 155.748 141.468 146.236 140.976 146.236L140.812 158.208C140.812 164.604 140.484 170.18 140.32 170.672C139.992 171.164 139.664 171.328 139.336 171.328ZM162.296 117.864C162.624 115.404 162.952 114.256 162.952 110.32L163.608 93.1C163.936 87.36 164.1 82.276 164.1 79.98V78.504C163.772 78.012 163.444 77.848 160.82 77.848L141.632 78.34L140.976 117.864H162.296ZM187.1 122.292C184.476 122.456 184.476 121.8 187.1 121.472L189.232 121.144L189.56 109.172C189.888 98.348 189.56 82.604 189.068 80.636C188.904 80.308 187.92 79.488 186.936 79.16C184.804 78.176 184.64 77.848 186.28 77.028C187.756 76.372 187.756 75.716 186.444 74.732C185.46 73.912 185.46 73.748 185.952 73.092C186.772 72.108 186.772 70.14 185.952 69.32C185.624 68.992 185.788 68.172 186.28 67.024C187.1 65.548 187.1 65.22 186.444 64.892C185.952 64.564 185.952 64.4 186.608 64.4C187.428 64.4 188.248 61.94 188.412 59.316C188.412 58.004 188.412 57.84 189.068 58.332C189.56 58.824 189.888 58.824 190.38 58.332C191.2 57.676 191.2 57.676 192.348 59.808L193.168 61.448L193.496 60.136C193.824 59.48 194.152 58.988 194.316 59.152C194.644 59.152 194.972 58.824 195.136 58.332C195.464 57.184 196.12 57.184 196.448 58.332C196.776 59.316 196.94 59.316 197.76 58.66C199.236 57.676 199.892 57.676 200.384 59.152L200.712 60.464L201.04 59.316C201.204 58.66 201.86 57.84 202.352 57.512C203.172 57.02 203.336 57.184 203.664 58.004C203.828 58.66 204.156 59.48 204.32 59.972C204.32 60.628 204.812 60.956 205.632 60.792C216.456 59.972 229.576 59.644 236.3 60.136C240.564 60.464 244.336 60.792 244.828 60.956C246.14 61.448 245.648 62.104 243.68 62.268H241.712L244.828 63.908H243.516C242.532 63.908 242.368 64.072 242.532 64.728C242.696 65.22 242.532 65.384 241.876 65.384C240.728 65.384 240.728 65.712 241.712 67.188C242.04 67.68 242.204 68.172 242.04 68.172C241.876 68.172 242.04 68.5 242.532 68.828C243.352 69.484 243.352 69.484 241.384 69.648H239.252L241.22 70.14C244.336 70.96 244.336 70.796 243.516 71.616C243.188 72.108 242.532 72.272 242.204 72.272C241.384 72.272 241.22 72.928 241.22 73.748C241.056 74.404 241.712 74.732 243.68 75.224L246.304 75.88L243.352 76.044C241.548 76.208 235.316 76.536 229.248 76.536C219.572 76.536 212.848 76.864 207.764 77.684L206.124 78.012V99.004L206.288 119.996L213.504 119.668C228.592 119.012 237.448 119.176 236.956 119.832C236.792 119.996 237.12 120.324 237.448 120.488C238.268 120.816 237.776 122.128 236.792 122.128C236.3 122.128 235.644 122.456 235.152 122.784C234.332 123.44 234.332 123.44 235.644 123.768C236.3 123.932 238.268 124.26 239.744 124.424C242.368 125.08 243.352 125.9 241.056 125.736C240.4 125.736 238.76 125.736 237.448 125.736L235.152 125.9L236.464 126.556C237.612 127.376 238.104 128.196 237.284 128.196C236.956 128.196 236.792 128.524 236.792 128.852C236.792 129.18 237.612 129.672 238.924 129.836C240.4 130.164 241.056 130.492 241.22 131.148C241.22 131.64 240.564 131.968 236.628 132.46C234.004 132.624 231.544 132.952 231.216 133.116C230.396 133.116 233.02 133.608 238.104 134.1C239.744 134.264 240.892 134.428 240.728 134.592C240.728 134.756 234.496 134.92 227.116 135.248C219.736 135.412 212.028 135.74 209.896 135.904L205.96 136.232L206.124 146.4C206.124 151.976 206.452 156.732 206.452 156.732C206.944 157.224 212.356 156.076 212.848 155.256C213.34 154.764 213.504 154.764 213.504 155.256C213.504 155.584 213.832 155.748 214.816 155.42C218.096 154.6 233.02 152.796 239.088 152.632C246.632 152.304 248.928 152.632 245.976 153.944L244.5 154.6L246.14 154.928C247.124 155.092 247.944 155.584 247.78 155.912C247.616 156.076 245.812 156.896 243.68 157.388L239.744 158.372H242.204C244.008 158.536 244.992 158.7 245.484 159.356C246.468 160.34 246.468 160.34 244.336 160.996C243.188 161.324 241.712 161.652 241.22 161.652C240.728 161.652 240.4 161.98 240.564 162.472C240.728 163.292 241.22 163.292 244.172 163.292C247.452 163.128 247.616 163.128 246.304 163.784C245.484 164.112 245.156 164.44 245.648 164.44C246.796 164.604 245.484 165.424 243.516 165.916L241.712 166.244L243.516 166.408C244.5 166.408 245.156 166.572 244.992 166.736C244.828 166.9 244.828 167.228 245.156 167.556C245.812 168.376 246.468 168.212 228.92 170.344C221.212 171.328 213.176 172.312 210.716 172.804C206.452 173.46 199.4 173.788 195.792 173.46C193.168 173.296 192.676 172.968 193.66 172.312C194.152 171.984 194.48 171.492 194.316 171.164C193.824 170.344 191.528 171.164 191.2 172.148C190.708 172.968 190.708 172.968 190.708 171.656C190.708 170.836 190.544 170.016 190.216 169.852C190.052 169.852 189.724 162.308 189.56 153.452C189.396 144.596 189.068 137.052 188.904 136.888C188.904 136.724 188.248 136.56 187.592 136.56C186.936 136.56 186.444 136.396 186.444 136.068C186.444 135.904 187.1 135.74 187.92 135.74C188.904 135.74 189.232 135.412 189.232 134.756C189.232 134.1 188.904 133.772 188.084 133.772C186.772 133.772 185.624 133.444 185.624 132.952C185.624 132.624 186.444 132.296 187.428 131.968C189.068 131.476 189.232 131.312 189.232 130.164C189.068 129.016 188.74 128.852 187.1 128.688C185.624 128.36 185.46 128.36 186.28 128.032C186.772 127.868 187.592 127.54 188.248 127.212C189.724 126.72 189.56 125.08 187.92 124.752L186.772 124.588H187.92C189.068 124.424 189.232 124.26 189.232 123.276C189.232 122.128 189.232 122.128 187.1 122.292ZM238.104 73.42C237.776 73.584 238.104 73.584 238.924 73.584C239.58 73.584 239.908 73.584 239.416 73.42C238.924 73.256 238.268 73.256 238.104 73.42ZM252.604 121.472C249.98 121.8 249.98 121.144 252.604 120.816L254.736 120.488L255.064 108.516C255.392 97.692 255.064 81.784 254.572 79.98C254.408 79.652 253.424 78.832 252.44 78.34C250.308 77.356 250.144 77.192 251.784 76.372C253.26 75.716 253.26 75.06 251.948 74.076C250.964 73.256 250.964 73.092 251.456 72.272C252.276 71.452 252.276 69.484 251.456 68.5C251.128 68.172 251.292 67.352 251.784 66.368C252.604 64.892 252.604 64.564 251.948 64.236C251.456 63.908 251.456 63.744 252.112 63.744C252.932 63.744 253.752 61.284 253.916 58.66C253.916 57.348 253.916 57.184 254.572 57.676C255.064 58.168 255.392 58.168 255.884 57.676C256.704 57.02 256.704 57.02 257.852 59.152L258.672 60.792L259 59.48C259.328 58.66 259.656 58.332 259.82 58.332C260.148 58.496 260.476 58.168 260.64 57.676C260.968 56.528 261.624 56.528 261.952 57.676C262.28 58.496 262.444 58.496 263.264 58.004C264.74 56.856 265.396 57.02 265.888 58.496L266.216 59.808L266.544 58.66C266.708 58.004 267.364 57.184 267.856 56.856C268.676 56.364 268.84 56.364 269.168 57.348C269.332 57.84 269.66 58.824 269.824 59.316C269.824 59.972 270.316 60.3 271.136 60.136C281.96 59.316 295.08 58.988 301.804 59.48C306.068 59.644 309.84 60.136 310.332 60.3C311.644 60.792 311.152 61.284 309.184 61.448L307.216 61.612L310.332 63.252H309.02C308.036 63.252 307.872 63.416 308.036 63.908C308.2 64.4 308.036 64.728 307.38 64.728C306.232 64.728 306.232 65.056 307.216 66.368C307.544 67.024 307.708 67.516 307.544 67.516C307.38 67.516 307.544 67.844 308.036 68.172C308.856 68.828 308.856 68.828 306.888 68.992H304.756L306.724 69.484C309.84 70.14 309.84 70.14 309.02 70.96C308.692 71.288 308.036 71.616 307.708 71.616C307.216 71.616 306.888 71.78 306.888 71.944C306.888 71.944 306.888 72.108 306.888 72.272L306.724 72.764C306.724 72.928 306.724 72.928 306.724 73.092C306.56 73.748 307.216 74.076 309.184 74.568L311.808 75.06L308.856 75.388C307.052 75.552 300.82 75.716 294.752 75.88C285.076 75.88 278.352 76.208 273.268 77.028L271.628 77.356V98.348L271.792 119.176L279.008 119.012C294.096 118.356 302.952 118.356 302.46 119.176C302.296 119.34 302.624 119.668 302.952 119.832C303.772 120.16 303.28 121.472 302.296 121.472C301.804 121.472 301.148 121.8 300.656 122.128C299.836 122.784 299.836 122.784 301.148 122.948C301.804 123.112 303.772 123.604 305.248 123.768C307.872 124.424 308.856 125.244 306.56 125.08C305.904 125.08 304.264 125.08 302.952 125.08L300.656 125.244L301.968 125.9C303.116 126.556 303.608 127.54 302.788 127.54C302.46 127.54 302.296 127.868 302.296 128.196C302.296 128.524 303.116 129.016 304.428 129.18C305.904 129.508 306.56 129.836 306.724 130.328C306.724 131.476 298.36 132.296 296.72 132.296C295.9 132.46 298.524 132.952 303.608 133.444C305.248 133.608 306.396 133.772 306.232 133.936C306.232 134.1 300 134.264 292.62 134.592C285.24 134.756 277.532 135.084 275.4 135.248L271.464 135.576L271.792 153.616C271.956 164.604 271.792 171.82 271.628 172.148C271.3 172.804 270.152 172.968 267.036 172.968C264.74 172.968 262.116 172.804 261.296 172.804C258.672 172.64 258.18 172.312 259.164 171.656C259.656 171.164 259.984 170.672 259.82 170.508C259.328 169.688 257.032 170.344 256.704 171.492C256.212 172.312 256.212 172.312 256.212 171C256.212 170.18 256.048 169.36 255.72 169.196C255.556 169.032 255.228 161.652 255.064 152.796C254.9 143.94 254.572 136.396 254.408 136.232C254.408 136.068 253.752 135.904 253.096 135.904C252.44 135.904 251.948 135.74 251.948 135.412C251.948 135.248 252.604 134.92 253.424 134.92C254.408 134.92 254.736 134.756 254.736 134.1C254.736 133.444 254.408 133.116 253.588 133.116C252.276 133.116 251.128 132.624 251.128 132.132C251.128 131.968 251.948 131.64 252.932 131.312C254.572 130.82 254.736 130.656 254.736 129.508C254.572 128.36 254.244 128.196 252.604 128.032C251.128 127.704 250.964 127.704 251.784 127.376C252.276 127.212 253.096 126.72 253.752 126.556C255.228 125.9 255.064 124.424 253.424 124.096L252.276 123.932H253.424C254.572 123.768 254.736 123.604 254.736 122.62C254.736 121.472 254.736 121.472 252.604 121.472ZM303.608 72.764C303.28 72.928 303.608 72.928 304.428 72.928C305.084 72.928 305.412 72.928 304.92 72.764C304.428 72.6 303.772 72.6 303.608 72.764ZM317.788 121.472C315.164 121.8 315.164 121.144 317.788 120.816L319.92 120.488L320.248 108.516C320.576 97.692 320.248 81.784 319.756 79.98C319.592 79.652 318.608 78.832 317.624 78.34C315.492 77.356 315.328 77.192 316.968 76.372C318.444 75.716 318.444 75.06 317.132 74.076C316.148 73.256 316.148 73.092 316.64 72.272C317.46 71.452 317.46 69.484 316.64 68.5C316.312 68.172 316.476 67.352 316.968 66.368C317.788 64.892 317.788 64.564 317.132 64.236C316.64 63.908 316.64 63.744 317.296 63.744C318.116 63.744 318.936 61.284 319.1 58.66C319.1 57.348 319.1 57.184 319.756 57.676C320.248 58.168 320.576 58.168 321.068 57.676C321.888 57.02 321.888 57.02 323.036 59.152L323.856 60.792L324.184 59.48C324.512 58.66 324.84 58.332 325.004 58.332C325.332 58.496 325.66 58.168 325.824 57.676C326.152 56.528 326.808 56.528 327.136 57.676C327.464 58.496 327.628 58.496 328.448 58.004C329.924 56.856 330.58 57.02 331.072 58.496L331.4 59.808L331.728 58.66C331.892 58.004 332.548 57.184 333.04 56.856C333.86 56.364 334.024 56.364 334.352 57.348C334.516 57.84 334.844 58.824 335.008 59.316C335.008 59.972 335.5 60.3 336.32 60.136C347.144 59.316 360.264 58.988 366.988 59.48C371.252 59.644 375.024 60.136 375.516 60.3C376.828 60.792 376.336 61.284 374.368 61.448L372.4 61.612L375.516 63.252H374.204C373.22 63.252 373.056 63.416 373.22 63.908C373.384 64.4 373.22 64.728 372.564 64.728C371.416 64.728 371.416 65.056 372.4 66.368C372.728 67.024 372.892 67.516 372.728 67.516C372.564 67.516 372.728 67.844 373.22 68.172C374.04 68.828 374.04 68.828 372.072 68.992H369.94L371.908 69.484C375.024 70.14 375.024 70.14 374.204 70.96C373.876 71.288 373.22 71.616 372.892 71.616C372.4 71.616 372.072 71.78 372.072 71.944C372.072 71.944 372.072 72.108 372.072 72.272L371.908 72.764C371.908 72.928 371.908 72.928 371.908 73.092C371.744 73.748 372.4 74.076 374.368 74.568L376.992 75.06L374.04 75.388C372.236 75.552 366.004 75.716 359.936 75.88C350.26 75.88 343.536 76.208 338.452 77.028L336.812 77.356V98.348L336.976 119.176L344.192 119.012C359.28 118.356 368.136 118.356 367.644 119.176C367.48 119.34 367.808 119.668 368.136 119.832C368.956 120.16 368.464 121.472 367.48 121.472C366.988 121.472 366.332 121.8 365.84 122.128C365.02 122.784 365.02 122.784 366.332 122.948C366.988 123.112 368.956 123.604 370.432 123.768C373.056 124.424 374.04 125.244 371.744 125.08C371.088 125.08 369.448 125.08 368.136 125.08L365.84 125.244L367.152 125.9C368.3 126.556 368.792 127.54 367.972 127.54C367.644 127.54 367.48 127.868 367.48 128.196C367.48 128.524 368.3 129.016 369.612 129.18C371.088 129.508 371.744 129.836 371.908 130.328C371.908 131.476 363.544 132.296 361.904 132.296C361.084 132.46 363.708 132.952 368.792 133.444C370.432 133.608 371.58 133.772 371.416 133.936C371.416 134.1 365.184 134.264 357.804 134.592C350.424 134.756 342.716 135.084 340.584 135.248L336.648 135.576L336.976 153.616C337.14 164.604 336.976 171.82 336.812 172.148C336.484 172.804 335.336 172.968 332.22 172.968C329.924 172.968 327.3 172.804 326.48 172.804C323.856 172.64 323.364 172.312 324.348 171.656C324.84 171.164 325.168 170.672 325.004 170.508C324.512 169.688 322.216 170.344 321.888 171.492C321.396 172.312 321.396 172.312 321.396 171C321.396 170.18 321.232 169.36 320.904 169.196C320.74 169.032 320.412 161.652 320.248 152.796C320.084 143.94 319.756 136.396 319.592 136.232C319.592 136.068 318.936 135.904 318.28 135.904C317.624 135.904 317.132 135.74 317.132 135.412C317.132 135.248 317.788 134.92 318.608 134.92C319.592 134.92 319.92 134.756 319.92 134.1C319.92 133.444 319.592 133.116 318.772 133.116C317.46 133.116 316.312 132.624 316.312 132.132C316.312 131.968 317.132 131.64 318.116 131.312C319.756 130.82 319.92 130.656 319.92 129.508C319.756 128.36 319.428 128.196 317.788 128.032C316.312 127.704 316.148 127.704 316.968 127.376C317.46 127.212 318.28 126.72 318.936 126.556C320.412 125.9 320.248 124.424 318.608 124.096L317.46 123.932H318.608C319.756 123.768 319.92 123.604 319.92 122.62C319.92 121.472 319.92 121.472 317.788 121.472ZM368.792 72.764C368.464 72.928 368.792 72.928 369.612 72.928C370.268 72.928 370.596 72.928 370.104 72.764C369.612 72.6 368.956 72.6 368.792 72.764ZM461.527 171.328C461.855 171.656 461.527 171.82 460.543 172.148C458.739 172.476 445.291 172.312 434.959 171.82C430.859 171.656 425.939 171.328 424.135 171C421.183 170.508 418.723 169.36 418.723 168.54C418.723 168.212 418.231 168.54 417.575 169.032C416.591 169.688 415.279 169.852 401.667 169.852C384.611 170.016 382.807 169.852 382.315 168.212C382.151 167.556 381.987 167.228 381.987 167.556C381.823 167.72 381.659 167.392 381.495 166.572C381.003 165.096 380.839 59.972 381.331 59.152C381.495 58.988 381.823 58.988 382.151 59.316C382.643 59.644 382.807 59.644 382.807 59.316C382.807 58.66 384.775 58.824 385.267 59.48C385.431 59.644 385.759 59.644 386.251 59.48C386.907 58.824 392.811 58.824 393.303 59.316C393.467 59.48 394.287 59.48 394.943 59.152C395.599 58.824 396.255 58.824 396.583 59.152C397.567 60.3 397.731 70.632 397.731 110.648L397.567 153.288H405.931C410.523 153.452 414.459 153.288 414.623 153.124C414.787 152.96 414.951 145.088 415.115 135.904C415.279 126.556 415.607 117.372 415.771 115.24L416.099 111.304H417.739C418.723 111.304 420.035 111.796 420.855 112.288C422.167 113.108 422.331 113.108 422.659 112.452C422.823 111.96 423.315 111.796 423.807 111.96C424.299 112.124 424.791 112.124 424.955 111.96C425.119 111.796 426.595 111.468 428.399 111.468L431.679 111.304L432.007 113.108C432.171 114.092 432.171 122.784 432.007 132.46C431.679 142.3 431.515 151.32 431.515 152.468V154.764L434.467 154.928C436.271 154.928 440.535 155.092 444.143 155.42L450.867 155.748L451.031 121.964C451.031 103.432 451.031 85.064 450.867 80.964C450.867 76.864 450.867 71.288 451.031 68.664L451.359 63.908H453.983C455.459 63.908 458.247 63.744 460.215 63.744C462.183 63.58 464.479 63.744 465.463 63.744C466.939 63.908 467.103 64.072 467.267 66.368C467.595 68.664 467.595 81.292 467.431 135.576C467.267 167.72 467.267 167.884 466.775 168.54C466.447 169.032 465.627 169.196 464.807 169.196C463.987 169.196 463.331 169.36 463.331 169.688C463.331 169.852 462.839 170.344 462.183 170.508C461.199 170.836 461.035 171.164 461.527 171.328ZM473.139 122.292C470.515 122.456 470.515 121.8 473.139 121.472L475.271 121.144L475.599 109.172C475.927 98.348 475.599 82.604 475.107 80.636C474.943 80.308 473.959 79.488 472.975 79.16C470.843 78.176 470.679 77.848 472.319 77.028C473.795 76.372 473.795 75.716 472.483 74.732C471.499 73.912 471.499 73.748 471.991 73.092C472.811 72.108 472.811 70.14 471.991 69.32C471.663 68.992 471.827 68.172 472.319 67.024C473.139 65.548 473.139 65.22 472.483 64.892C471.991 64.564 471.991 64.4 472.647 64.4C473.467 64.4 474.287 61.94 474.451 59.316C474.451 58.004 474.451 57.84 475.107 58.332C475.599 58.824 475.927 58.824 476.419 58.332C477.239 57.676 477.239 57.676 478.387 59.808L479.207 61.448L479.535 60.136C479.863 59.48 480.191 58.988 480.355 59.152C480.683 59.152 481.011 58.824 481.175 58.332C481.503 57.184 482.159 57.184 482.487 58.332C482.815 59.316 482.979 59.316 483.799 58.66C485.275 57.676 485.931 57.676 486.423 59.152L486.751 60.464L487.079 59.316C487.243 58.66 487.899 57.84 488.391 57.512C489.211 57.02 489.375 57.184 489.703 58.004C489.867 58.66 490.195 59.48 490.359 59.972C490.359 60.628 490.851 60.956 491.671 60.792C502.495 59.972 515.615 59.644 522.339 60.136C526.603 60.464 530.375 60.792 530.867 60.956C532.179 61.448 531.687 62.104 529.719 62.268H527.751L530.867 63.908H529.555C528.571 63.908 528.407 64.072 528.571 64.728C528.735 65.22 528.571 65.384 527.915 65.384C526.767 65.384 526.767 65.712 527.751 67.188C528.079 67.68 528.243 68.172 528.079 68.172C527.915 68.172 528.079 68.5 528.571 68.828C529.391 69.484 529.391 69.484 527.423 69.648H525.291L527.259 70.14C530.375 70.96 530.375 70.796 529.555 71.616C529.227 72.108 528.571 72.272 528.243 72.272C527.423 72.272 527.259 72.928 527.259 73.748C527.095 74.404 527.751 74.732 529.719 75.224L532.343 75.88L529.391 76.044C527.587 76.208 521.355 76.536 515.287 76.536C505.611 76.536 498.887 76.864 493.803 77.684L492.163 78.012V99.004L492.327 119.996L499.543 119.668C514.631 119.012 523.487 119.176 522.995 119.832C522.831 119.996 523.159 120.324 523.487 120.488C524.307 120.816 523.815 122.128 522.831 122.128C522.339 122.128 521.683 122.456 521.191 122.784C520.371 123.44 520.371 123.44 521.683 123.768C522.339 123.932 524.307 124.26 525.783 124.424C528.407 125.08 529.391 125.9 527.095 125.736C526.439 125.736 524.799 125.736 523.487 125.736L521.191 125.9L522.503 126.556C523.651 127.376 524.143 128.196 523.323 128.196C522.995 128.196 522.831 128.524 522.831 128.852C522.831 129.18 523.651 129.672 524.963 129.836C526.439 130.164 527.095 130.492 527.259 131.148C527.259 131.64 526.603 131.968 522.667 132.46C520.043 132.624 517.583 132.952 517.255 133.116C516.435 133.116 519.059 133.608 524.143 134.1C525.783 134.264 526.931 134.428 526.767 134.592C526.767 134.756 520.535 134.92 513.155 135.248C505.775 135.412 498.067 135.74 495.935 135.904L491.999 136.232L492.163 146.4C492.163 151.976 492.491 156.732 492.491 156.732C492.983 157.224 498.395 156.076 498.887 155.256C499.379 154.764 499.543 154.764 499.543 155.256C499.543 155.584 499.871 155.748 500.855 155.42C504.135 154.6 519.059 152.796 525.127 152.632C532.671 152.304 534.967 152.632 532.015 153.944L530.539 154.6L532.179 154.928C533.163 155.092 533.983 155.584 533.819 155.912C533.655 156.076 531.851 156.896 529.719 157.388L525.783 158.372H528.243C530.047 158.536 531.031 158.7 531.523 159.356C532.507 160.34 532.507 160.34 530.375 160.996C529.227 161.324 527.751 161.652 527.259 161.652C526.767 161.652 526.439 161.98 526.603 162.472C526.767 163.292 527.259 163.292 530.211 163.292C533.491 163.128 533.655 163.128 532.343 163.784C531.523 164.112 531.195 164.44 531.687 164.44C532.835 164.604 531.523 165.424 529.555 165.916L527.751 166.244L529.555 166.408C530.539 166.408 531.195 166.572 531.031 166.736C530.867 166.9 530.867 167.228 531.195 167.556C531.851 168.376 532.507 168.212 514.959 170.344C507.251 171.328 499.215 172.312 496.755 172.804C492.491 173.46 485.439 173.788 481.831 173.46C479.207 173.296 478.715 172.968 479.699 172.312C480.191 171.984 480.519 171.492 480.355 171.164C479.863 170.344 477.567 171.164 477.239 172.148C476.747 172.968 476.747 172.968 476.747 171.656C476.747 170.836 476.583 170.016 476.255 169.852C476.091 169.852 475.763 162.308 475.599 153.452C475.435 144.596 475.107 137.052 474.943 136.888C474.943 136.724 474.287 136.56 473.631 136.56C472.975 136.56 472.483 136.396 472.483 136.068C472.483 135.904 473.139 135.74 473.959 135.74C474.943 135.74 475.271 135.412 475.271 134.756C475.271 134.1 474.943 133.772 474.123 133.772C472.811 133.772 471.663 133.444 471.663 132.952C471.663 132.624 472.483 132.296 473.467 131.968C475.107 131.476 475.271 131.312 475.271 130.164C475.107 129.016 474.779 128.852 473.139 128.688C471.663 128.36 471.499 128.36 472.319 128.032C472.811 127.868 473.631 127.54 474.287 127.212C475.763 126.72 475.599 125.08 473.959 124.752L472.811 124.588H473.959C475.107 124.424 475.271 124.26 475.271 123.276C475.271 122.128 475.271 122.128 473.139 122.292ZM524.143 73.42C523.815 73.584 524.143 73.584 524.963 73.584C525.619 73.584 525.947 73.584 525.455 73.42C524.963 73.256 524.307 73.256 524.143 73.42ZM566.794 171.328C566.63 171.328 566.63 171.164 566.63 170.836C566.63 170.344 565.974 170.18 565.318 170.18C564.662 170.18 563.842 170.344 563.35 170.836C562.858 171.164 562.202 171.328 561.545 171.328C560.726 171.328 559.906 171.164 559.742 170.672L559.25 170.016L558.922 170.672C558.758 171 558.43 171.328 558.266 171.328L557.118 171.164C556.79 171 556.298 170.672 556.298 170.508C556.298 170.344 555.97 170.016 555.478 169.852H554.986C554.658 169.852 554.494 169.852 554.494 170.016C554.494 170.344 554.166 170.508 554.002 170.508C553.51 170.508 553.018 170.18 552.526 169.524C551.87 168.704 551.706 166.572 551.542 148.532L551.87 103.432L552.198 78.34H545.802C541.046 78.34 539.57 77.848 539.57 76.7L539.242 73.912L539.734 70.468C539.734 70.14 539.57 69.976 539.406 69.812L539.078 69.484C539.078 69.156 539.242 68.992 539.406 68.664C539.57 67.844 539.734 67.188 539.734 66.532C539.734 66.04 539.734 65.712 539.57 65.384C539.406 65.22 539.242 65.056 539.242 64.892C539.242 64.728 539.406 64.728 539.734 64.564C540.226 64.4 540.554 63.908 540.554 63.416C540.554 62.924 540.718 62.432 541.046 62.432L546.786 62.104C551.706 61.612 552.198 61.448 552.854 59.808C553.182 59.808 553.346 59.972 553.674 60.3C554.002 60.792 554.166 61.12 554.33 61.12L555.314 60.464C555.806 59.972 556.134 59.808 556.462 59.808C556.79 59.808 557.118 60.136 557.774 60.792L558.758 61.776C559.742 60.464 560.234 59.808 560.726 59.808C560.89 59.808 561.054 60.136 561.054 60.628C561.054 61.284 561.382 61.612 561.874 61.612C562.53 61.612 562.858 61.284 562.858 60.628C562.858 59.972 563.186 59.808 564.826 59.808C566.302 59.972 566.794 60.136 566.958 60.792C567.122 61.448 568.598 61.448 583.85 61.612C598.118 61.612 600.906 61.612 602.546 62.268C604.678 63.088 606.974 65.22 607.63 67.024C607.794 67.68 607.958 73.584 607.958 80.472C607.958 87.36 607.794 95.068 607.63 99.66C607.302 103.76 606.974 112.616 606.646 119.504C606.482 126.392 606.154 132.46 605.99 132.952C605.498 134.1 604.514 134.264 595.986 134.428L587.622 134.756L587.13 134.92L586.146 134.756H584.834C584.834 134.756 593.362 141.48 597.626 145.58C601.89 150.008 603.858 151.812 604.022 151.812L602.054 149.188C603.202 149.188 608.614 156.076 608.614 158.044V158.7C608.45 158.864 608.286 159.192 608.286 159.684C608.286 160.012 608.45 160.504 608.614 161.16L608.942 162.8C608.942 163.128 608.778 163.292 608.45 163.62C608.122 163.784 607.958 163.948 607.958 164.112C607.958 164.44 608.122 164.604 608.286 164.768C608.45 165.096 608.614 165.752 608.614 166.408C608.614 168.048 608.122 169.852 607.63 169.852C607.138 169.852 606.318 170.18 605.826 170.508C605.006 171 604.022 171.164 602.218 171.164L597.462 171C593.198 170.836 594.674 171.82 585.326 161.652C582.702 158.864 580.57 156.732 580.242 156.732C580.078 156.732 580.078 156.568 580.078 156.24C580.078 155.748 568.926 146.236 568.434 146.236L568.27 158.208C568.27 164.604 567.942 170.18 567.778 170.672C567.45 171.164 567.122 171.328 566.794 171.328ZM589.754 117.864C590.082 115.404 590.41 114.256 590.41 110.32L591.066 93.1C591.394 87.36 591.558 82.276 591.558 79.98V78.504C591.23 78.012 590.902 77.848 588.278 77.848L569.09 78.34L568.434 117.864H589.754ZM665.889 136.068C665.889 139.184 665.725 142.3 665.069 145.252C664.741 147.876 663.921 155.584 663.593 160.832C663.265 170.508 662.937 171.82 661.461 170.672C661.133 170.344 660.805 170.344 660.805 170.508C660.805 170.672 660.477 170.508 660.149 170.18C659.657 169.852 659.493 169.852 659.329 170.508C659.165 171 659.001 170.672 659.001 169.852C659.001 168.048 658.181 167.884 657.853 169.688C657.689 170.508 657.033 171.656 656.541 172.148L655.393 173.296L655.065 171.984C654.409 170.344 653.917 170.344 653.589 172.148C653.097 174.116 651.949 173.952 651.949 171.656C651.949 169.688 650.965 168.868 649.817 170.016C649.161 170.672 649.161 170.672 648.669 169.688C648.505 169.032 648.341 168.868 648.341 169.196C648.177 169.524 648.013 169.688 647.685 169.524C647.357 169.196 647.193 165.424 647.357 156.732C647.357 150.008 647.685 142.792 647.685 142.628C647.521 142.464 645.389 142.792 642.765 143.284C640.141 143.776 636.041 144.432 633.745 144.596L629.481 145.252L629.153 156.24C629.153 161.488 628.989 166.572 628.661 167.72C628.497 168.704 628.333 169.196 628.333 168.868C628.169 168.048 627.349 168.704 627.349 169.688C627.349 170.836 626.693 171 619.313 170.836H613.081L612.753 168.048C612.261 163.62 612.753 129.18 613.409 114.912C613.573 107.696 613.901 92.116 614.065 80.308L614.393 58.988H617.181C618.821 58.988 621.445 58.988 623.085 59.152C624.889 59.152 626.365 58.988 626.693 58.824C627.021 58.66 627.677 58.824 628.333 59.152C628.825 59.48 629.481 59.808 629.645 59.808C630.629 59.808 630.793 62.104 630.957 79.324L631.285 98.02L635.057 90.476C637.025 86.376 640.961 79.16 643.585 74.404C646.045 69.648 648.669 64.564 649.161 63.088C650.145 60.464 650.965 59.644 650.965 61.284C650.965 61.94 651.129 61.94 651.785 61.12C652.277 60.628 652.769 60.3 653.589 60.3L654.573 60.464C655.393 60.464 655.721 60.628 655.721 61.612C655.721 62.596 655.885 62.76 656.705 62.76C657.197 62.76 658.017 62.76 658.509 62.924C659.001 63.252 659.493 62.924 659.985 62.596C660.477 62.104 661.461 61.612 662.281 61.612C663.101 61.448 663.921 61.284 664.249 60.956C665.069 60.3 665.725 65.548 665.725 71.124C665.561 74.732 665.397 75.552 664.577 76.208C664.085 76.7 661.789 80.964 659.493 85.72C657.197 90.312 653.753 96.872 651.621 100.316C649.653 103.596 647.357 108.024 646.373 109.992C645.389 112.124 643.913 116.388 642.601 118.848C641.289 121.308 639.813 126.228 639.977 126.556C640.141 126.72 643.257 126.556 646.865 126.228C649.817 125.9 653.097 125.736 656.049 125.736C659.165 125.736 661.789 125.9 663.265 126.228C663.921 126.392 664.413 126.72 664.413 127.048C664.413 127.376 664.577 127.868 665.069 128.032C665.561 128.196 665.725 129.016 665.725 131.476C665.725 131.804 665.725 132.296 665.725 132.952L665.889 136.068Z" fill="#EF4444"/>
</svg>
